<?xml version="1.0" encoding="UTF-8" standalone="no"?>
<!DOCTYPE svg PUBLIC "-//W3C//DTD SVG 1.1//EN"
 "http://www.w3.org/Graphics/SVG/1.1/DTD/svg11.dtd">
<!-- Generated by graphviz version 7.0.5 (20221223.1930)
 -->
<!-- Title: G Pages: 1 -->
<svg width="355pt" height="188pt"
 viewBox="0.00 0.00 355.44 188.00" xmlns="http://www.w3.org/2000/svg" xmlns:xlink="http://www.w3.org/1999/xlink">
<g id="graph0" class="graph" transform="scale(1 1) rotate(0) translate(4 184)">
<title>G</title>
<polygon fill="white" stroke="none" points="-4,4 -4,-184 351.44,-184 351.44,4 -4,4"/>
<!-- uctags -->
<g id="node1" class="node">
<title>uctags</title>
<ellipse fill="none" stroke="black" cx="191.15" cy="-162" rx="41.69" ry="18"/>
<text text-anchor="middle" x="191.15" y="-158.3" font-family="Times,serif" font-size="14.00">uctags</text>
</g>
<!-- jansson -->
<g id="node2" class="node">
<title>jansson</title>
<ellipse fill="none" stroke="black" cx="46.15" cy="-90" rx="46.29" ry="18"/>
<text text-anchor="middle" x="46.15" y="-86.3" font-family="Times,serif" font-size="14.00">jansson</text>
</g>
<!-- uctags&#45;&gt;jansson -->
<g id="edge1" class="edge">
<title>uctags&#45;&gt;jansson</title>
<path fill="none" stroke="black" d="M164.21,-148C141.85,-137.2 109.77,-121.72 84.69,-109.61"/>
<polygon fill="black" stroke="black" points="86.31,-106.5 75.78,-105.31 83.27,-112.81 86.31,-106.5"/>
</g>
<!-- libyaml -->
<g id="node3" class="node">
<title>libyaml</title>
<ellipse fill="none" stroke="black" cx="155.15" cy="-90" rx="44.69" ry="18"/>
<text text-anchor="middle" x="155.15" y="-86.3" font-family="Times,serif" font-size="14.00">libyaml</text>
</g>
<!-- uctags&#45;&gt;libyaml -->
<g id="edge2" class="edge">
<title>uctags&#45;&gt;libyaml</title>
<path fill="none" stroke="black" d="M182.43,-144.05C178.41,-136.23 173.53,-126.75 169.02,-117.98"/>
<polygon fill="black" stroke="black" points="172.16,-116.43 164.47,-109.13 165.93,-119.63 172.16,-116.43"/>
</g>
<!-- libxml2 -->
<g id="node4" class="node">
<title>libxml2</title>
<ellipse fill="none" stroke="black" cx="301.15" cy="-90" rx="45.49" ry="18"/>
<text text-anchor="middle" x="301.15" y="-86.3" font-family="Times,serif" font-size="14.00">libxml2</text>
</g>
<!-- uctags&#45;&gt;libxml2 -->
<g id="edge3" class="edge">
<title>uctags&#45;&gt;libxml2</title>
<path fill="none" stroke="black" d="M213.94,-146.5C229.76,-136.43 251.07,-122.86 268.67,-111.67"/>
<polygon fill="black" stroke="black" points="270.17,-114.86 276.73,-106.54 266.41,-108.95 270.17,-114.86"/>
</g>
<!-- libiconv -->
<g id="node5" class="node">
<title>libiconv</title>
<ellipse fill="none" stroke="black" cx="228.15" cy="-18" rx="46.59" ry="18"/>
<text text-anchor="middle" x="228.15" y="-14.3" font-family="Times,serif" font-size="14.00">libiconv</text>
</g>
<!-- uctags&#45;&gt;libiconv -->
<g id="edge4" class="edge">
<title>uctags&#45;&gt;libiconv</title>
<path fill="none" stroke="black" d="M197.5,-143.97C201.2,-133.66 205.79,-120.18 209.15,-108 214.67,-87.95 219.54,-64.99 222.96,-47.41"/>
<polygon fill="black" stroke="black" points="226.38,-48.17 224.81,-37.69 219.5,-46.86 226.38,-48.17"/>
</g>
<!-- libxml2&#45;&gt;libiconv -->
<g id="edge5" class="edge">
<title>libxml2&#45;&gt;libiconv</title>
<path fill="none" stroke="black" d="M284.58,-73.12C275.31,-64.23 263.57,-52.97 253.2,-43.03"/>
<polygon fill="black" stroke="black" points="255.63,-40.51 245.99,-36.11 250.79,-45.56 255.63,-40.51"/>
</g>
<!-- zlib -->
<g id="node6" class="node">
<title>zlib</title>
<ellipse fill="none" stroke="black" cx="320.15" cy="-18" rx="27.1" ry="18"/>
<text text-anchor="middle" x="320.15" y="-14.3" font-family="Times,serif" font-size="14.00">zlib</text>
</g>
<!-- libxml2&#45;&gt;zlib -->
<g id="edge6" class="edge">
<title>libxml2&#45;&gt;zlib</title>
<path fill="none" stroke="black" d="M305.84,-71.7C307.87,-64.24 310.29,-55.32 312.56,-46.97"/>
<polygon fill="black" stroke="black" points="315.87,-48.13 315.11,-37.57 309.11,-46.3 315.87,-48.13"/>
</g>
</g>
</svg>
